<?xml version="1.0" encoding="UTF-8" standalone="no"?>
<svg
   width="125"
   height="126"
   viewBox="0 0 125 126"
   fill="none"
   version="1.1"
   id="svg1"
   xml:space="preserve"
   xmlns="http://www.w3.org/2000/svg"
   xmlns:svg="http://www.w3.org/2000/svg"><defs
     id="defs1" /><path
     fill-rule="evenodd"
     clip-rule="evenodd"
     d="M62.4998 0.99808C97.0177 0.99808 125 28.98 125 63.498C125 98.015 97.0177 125.997 62.4998 125.997C27.9821 125.997 -0.000128031 98.015 -0.000128031 63.498C-0.000128031 28.98 27.9821 0.99808 62.4998 0.99808Z"
     fill="#F2F5F4"
     id="path1" /><g
     style="fill:none"
     id="g1"
     transform="translate(32.604603,33)"><path
       d="M 42.536,4 H 36 V 0 H 24 V 4 H 17.464 C 15.554,4 14,5.554 14,7.464 V 56.536 C 14,58.446 15.554,60 17.464,60 H 42.536 C 44.446,60 46,58.446 46,56.536 V 7.464 C 46,5.554 44.446,4 42.536,4 Z M 16,19 H 44 V 31 H 16 Z m 0,14 H 44 V 45 H 16 Z M 26,2 h 8 V 4 H 26 Z M 17.464,6 H 24 36 42.536 C 43.344,6 44,6.656 44,7.464 V 17 H 16 V 7.464 C 16,6.656 16.656,6 17.464,6 Z M 42.536,58 H 17.464 C 16.656,58 16,57.344 16,56.536 V 47 h 28 v 9.536 C 44,57.344 43.344,58 42.536,58 Z"
       fill="#000000"
       id="path1-2" /></g></svg>
