<?xml version="1.0" encoding="UTF-8" standalone="no"?>
<svg
   width="134"
   height="42"
   viewBox="0 0 134 42"
   fill="none"
   version="1.1"
   id="svg1"
   xmlns="http://www.w3.org/2000/svg"
   xmlns:svg="http://www.w3.org/2000/svg">
  <defs
     id="defs1" />
  <path
     fill-rule="evenodd"
     clip-rule="evenodd"
     d="m 66.947724,0.07673728 c 11.571383,0 20.951446,9.33413772 20.951446,20.84859272 0,11.514493 -9.380063,20.848637 -20.951446,20.848637 -11.570984,0 -20.951246,-9.334144 -20.951246,-20.848637 0,-11.514455 9.380262,-20.84859272 20.951246,-20.84859272 z M 120.82306,8.0196888 c 7.16301,0 12.96995,5.7779962 12.96995,12.9056412 0,7.128578 -5.80694,12.90717 -12.96995,12.90717 -7.1632,0 -12.97014,-5.778592 -12.97014,-12.90717 0,-7.127645 5.80694,-12.9056412 12.97014,-12.9056412 z M 26.04272,20.92533 c 0,-7.127645 -5.806942,-12.9056412 -12.969862,-12.9056412 -7.1632989,0 -12.97006585,5.7779962 -12.97006585,12.9056412 0,7.128578 5.80676695,12.90717 12.97006585,12.90717 7.16292,0 12.969862,-5.778592 12.969862,-12.90717 z"
     fill="#f2f5f4"
     id="path1"
     style="stroke-width:1.99046" />
</svg>
