<?xml version="1.0" encoding="UTF-8" standalone="no"?>
<svg
   width="67"
   height="21"
   viewBox="0 0 67 21"
   fill="none"
   version="1.1"
   id="svg1"
   xmlns="http://www.w3.org/2000/svg"
   xmlns:svg="http://www.w3.org/2000/svg">
  <defs
     id="defs1" />
  <path
     fill-rule="evenodd"
     clip-rule="evenodd"
     d="m 64.948696,-19.143834 c 11.243151,0 20.35714,8.986223 20.35714,20.07149476 0,11.08531024 -9.113989,20.07153924 -20.35714,20.07153924 -11.242763,0 -20.356946,-8.986229 -20.356946,-20.07153924 0,-11.08527176 9.114183,-20.07149476 20.356946,-20.07149476 z m 52.347124,7.646891 c 6.95982,0 12.60204,5.5626304 12.60204,12.42460376 0,6.86287184 -5.64222,12.42607624 -12.60204,12.42607624 -6.96001,0 -12.60223,-5.5632044 -12.60223,-12.42607624 0,-6.86197336 5.64222,-12.42460376 12.60223,-12.42460376 z M 25.203998,0.92766076 c 0,-6.86197336 -5.642223,-12.42460376 -12.601961,-12.42460376 -6.960106,0 -12.60215907,5.5626304 -12.60215907,12.42460376 0,6.86287184 5.64205307,12.42607624 12.60215907,12.42607624 6.959738,0 12.601961,-5.5632044 12.601961,-12.42607624 z"
     fill="#f2f5f4"
     id="path1"
     style="stroke-width:1.92512" />
</svg>
