<?xml version="1.0" encoding="UTF-8" standalone="no"?>
<svg
   width="125"
   height="126"
   viewBox="0 0 125 126"
   fill="none"
   version="1.1"
   id="svg1"
   xml:space="preserve"
   xmlns="http://www.w3.org/2000/svg"
   xmlns:svg="http://www.w3.org/2000/svg"><defs
     id="defs1" /><path
     fill-rule="evenodd"
     clip-rule="evenodd"
     d="M62.4998 0.99808C97.0177 0.99808 125 28.98 125 63.498C125 98.015 97.0177 125.997 62.4998 125.997C27.9821 125.997 -0.000128031 98.015 -0.000128031 63.498C-0.000128031 28.98 27.9821 0.99808 62.4998 0.99808Z"
     fill="#F2F5F4"
     id="path1" /><g
     style="fill:none"
     id="g1"
     transform="translate(32.604603,33)" /><g
     style="fill:none"
     id="g2"
     transform="translate(72.775943,50.014094)" /><g
     style="fill:none"
     id="g4"
     transform="matrix(0.86820085,0,0,1,45.290597,46.579497)"><path
       d="m 8.793,0 h -7 C 1.24,0 0.792999,0.447 0.792999,1 0.792999,1.553 1.24,2 1.793,2 h 7 c 0.553,0 1,-0.447 1,-1 0,-0.553 -0.447,-1 -1,-1 z"
       fill="#000000"
       id="path1-4" /></g><g
     style="fill:none"
     id="g5"
     transform="translate(33.421436,74.125524)"><path
       d="M 19.405971,0.26359833 H 6.4059707 c -0.553,0 -1.000001,0.447 -1.000001,0.99999997 0,0.553 0.447001,1 1.000001,1 H 19.405971 c 0.553,0 1,-0.447 1,-1 0,-0.55299997 -0.447,-0.99999997 -1,-0.99999997 z"
       fill="#000000"
       id="path1-46" /></g><g
     style="fill:none"
     id="g6"
     transform="translate(32.200724,66.876569)"><path
       d="m 20.793,0 h -19 C 1.24,0 0.792999,0.447 0.792999,1 0.792999,1.553 1.24,2 1.793,2 h 19 c 0.553,0 1,-0.447 1,-1 0,-0.553 -0.447,-1 -1,-1 z"
       fill="#000000"
       id="path1-9" /></g><g
     style="fill:none"
     id="g7"
     transform="translate(36.111813,60.023012)"><path
       d="m 16.793,0 h -15 C 1.24,0 0.792999,0.447 0.792999,1 0.792999,1.553 1.24,2 1.793,2 h 15 c 0.553,0 1,-0.447 1,-1 0,-0.553 -0.447,-1 -1,-1 z"
       fill="#000000"
       id="path1-1" /></g><g
     style="fill:none"
     id="g8"
     transform="translate(41.027485,53.51741)"><path
       d="m 11.793,0 h -10 C 1.24,0 0.792999,0.447 0.792999,1 0.792999,1.553 1.24,2 1.793,2 h 10 c 0.553,0 1,-0.447 1,-1 0,-0.553 -0.447,-1 -1,-1 z"
       fill="#000000"
       id="path1-17" /></g><g
     style="fill:none"
     id="g9"
     transform="matrix(0.67381374,0,0,1,44.761701,81.587638)"><path
       d="m 11.793,0 h -10 C 1.24,0 0.792999,0.447 0.792999,1 0.792999,1.553 1.24,2 1.793,2 h 10 c 0.553,0 1,-0.447 1,-1 0,-0.553 -0.447,-1 -1,-1 z"
       fill="#000000"
       id="path1-8" /></g><g
     style="fill:none"
     id="g10"
     transform="translate(57.634032,55.526982)"><path
       d="M 4.634,15.989 C 5.67499,15.908 6.624,15.377 7.24,14.53 L 16.603,1.586 C 16.89,1.189 16.847,0.640998 16.499,0.292998 16.151,-0.0540022 15.603,-0.0970023 15.206,0.188998 L 2.25999,9.555 c -0.844,0.614 -1.374995,1.563 -1.455995,2.604 -0.081,1.041 0.295995,2.06 1.032995,2.797 0.671,0.672 1.576,1.044 2.517,1.044 0.093,0 0.186,-0.004 0.28001,-0.011 z M 2.79799,12.315 c 0.035,-0.457 0.269,-0.874 0.637,-1.142 L 11.332,5.46 5.62099,13.355 c -0.27,0.371 -0.687,0.604 -1.144,0.64 -0.455,0.03 -0.902,-0.128 -1.227,-0.453 -0.322,-0.323 -0.488,-0.771 -0.452,-1.227 z"
       fill="#000000"
       id="path1-40" /></g><g
     style="fill:none"
     id="g11"
     transform="translate(54.752974,33.263598)"><path
       d="m 31.034,19.564 c -0.01,-0.021 -0.01,-0.043 -0.021,-0.064 -0.012,-0.02 -0.031,-0.031 -0.044,-0.05 -1.011,-1.734 -2.207,-3.347 -3.565,-4.809 l 2.148,-2.147 1.414,1.414 4.242,-4.243 -4.242,-4.242 -4.243,4.242 1.415,1.415 -2.148,2.147 C 24.528,11.869 22.916,10.672 21.181,9.661 21.162,9.648 21.151,9.629 21.131,9.617 21.11,9.605 21.088,9.606 21.067,9.595 17.974,7.813 14.499,6.626 10.794,6.191 V 5 h 1.5 c 1.379,0 2.5,-1.121 2.5,-2.5 C 14.794,1.121 13.672,0 12.293,0 H 3.29301 c -1.379,0 -2.499997,1.121 -2.499997,2.5 0,1.379 1.120997,2.5 2.499997,2.5 h 1.5 v 1.156 c -1.08,0.115 -2.158,0.291 -3.224,0.535 -0.538,0.123 -0.874995,0.66 -0.750995,1.198 0.123,0.538 0.659995,0.876 1.197995,0.751 0.92,-0.211 1.849,-0.37 2.78,-0.477 l 1.073,-0.083 c 0.328,-0.025 0.63,-0.043 0.924,-0.057 V 10 c 0,0.553 0.447,1 1,1 0.553,0 1,-0.447 1,-1 V 8.03 C 12.554,8.203 16.098,9.213 19.249,10.875 l -0.986,1.707 c -0.276,0.479 -0.112,1.09 0.366,1.366 0.157,0.091 0.329,0.134 0.499,0.134 0.346,0 0.682,-0.179 0.867,-0.5 l 0.983,-1.703 c 3.129,1.985 5.787,4.643 7.772,7.772 l -1.703,0.983 C 26.57,20.91 26.406,21.521 26.683,22 c 0.186,0.321 0.521,0.5 0.867,0.5 0.17,0 0.342,-0.043 0.499,-0.134 l 1.707,-0.986 c 1.685,3.196 2.698,6.798 2.849,10.619 H 30.63 c -0.553,0 -1,0.447 -1,1 0,0.553 0.447,1 1,1 h 1.975 c -0.151,3.821 -1.164,7.423 -2.849,10.619 l -1.707,-0.986 c -0.478,-0.276 -1.09,-0.114 -1.366,0.366 -0.276,0.479 -0.112,1.09 0.366,1.366 l 1.703,0.983 c -1.985,3.129 -4.643,5.787 -7.772,7.772 l -0.983,-1.703 c -0.277,-0.48 -0.89,-0.643 -1.366,-0.366 -0.479,0.276 -0.643,0.888 -0.366,1.366 l 0.986,1.707 C 16.1,56.785 12.556,57.795 8.79501,57.968 V 56 c 0,-0.553 -0.447,-1 -1,-1 -0.553,0 -1,0.447 -1,1 v 1.976 c -1.597,-0.055 -3.199,-0.255 -4.776,-0.617 -0.538,-0.129 -1.074997,0.213 -1.197997,0.751 -0.124,0.538 0.212997,1.075 0.750997,1.198 1.996,0.46 4.035,0.692 6.058,0.692 0.049,0 0.096,-0.003 0.145,-0.004 0.007,0 0.012,0.004 0.018,0.004 0.008,0 0.015,-0.005 0.023,-0.005 4.80699,-0.033 9.31699,-1.331 13.21899,-3.573 0.031,-0.014 0.064,-0.021 0.094,-0.039 0.02,-0.012 0.031,-0.031 0.05,-0.044 4.039,-2.354 7.414,-5.725 9.773,-9.761 0.019,-0.027 0.043,-0.048 0.06,-0.078 0.012,-0.021 0.011,-0.043 0.021,-0.064 2.284,-3.96 3.597,-8.546 3.597,-13.436 0,-4.89 -1.313,-9.476 -3.596,-13.436 z M 30.965,8.251 32.379,9.665 30.965,11.08 29.55,9.665 Z M 6.79301,6.021 V 3 h -3.5 c -0.275,0 -0.5,-0.225 -0.5,-0.5 0,-0.275 0.225,-0.5 0.5,-0.5 H 12.293 c 0.275,0 0.5,0.225 0.5,0.5 0,0.275 -0.225,0.5 -0.5,0.5 H 8.79301 V 6.021 C 8.44501,6.007 8.11301,6 7.79301,6 c -0.028,0 -0.06,0.002 -0.088,0.002 -0.025,0 -0.05,-0.002 -0.075,-0.002 -0.164,0 -0.328,0.011 -0.492,0.014 -0.116,0.003 -0.225,0.002 -0.345,0.007 z"
       fill="#000000"
       id="path1-0" /></g></svg>
